<?xml version="1.0" encoding="UTF-8" standalone="no"?> <svg width="512" height="512" viewBox="0 0 512 512" fill="none" xmlns="http://www.w3.org/2000/svg">
<path d="M392.473 156.644C397.473 170.551 400.02 185.221 400 200C400.06 221.785 395.798 243.366 387.461 263.492C379.124 283.619 366.878 301.893 351.432 317.255L331.716 336.971C327.99 340.676 325.036 345.084 323.025 349.939C321.014 354.794 319.986 360 320 365.255V400H192V368C192 366.949 191.794 365.909 191.392 364.939C190.99 363.968 190.4 363.086 189.657 362.343C188.914 361.6 188.033 361.011 187.062 360.609C186.091 360.207 185.051 360 184 360H164.96C159.003 360.017 153.255 357.811 148.838 353.814C144.422 349.818 141.655 344.317 141.08 338.388L135.961 287.204C135.763 285.23 134.84 283.4 133.369 282.069C131.898 280.737 129.984 280 128 280H104.849C103.51 280 102.193 279.664 101.018 279.023C99.8425 278.382 98.847 277.457 98.1222 276.331C97.3975 275.206 96.9668 273.917 96.8695 272.582C96.7722 271.247 97.0115 269.909 97.5654 268.69L127.284 203.311C127.756 202.271 128 201.142 128 200C128.039 166.064 141.537 133.529 165.533 109.533C189.529 85.5364 222.064 72.0384 256 72.0001H272C295.958 71.9748 319.44 78.6923 339.759 91.3843L348.242 77.8179C325.379 63.5346 298.958 55.9738 272 56.0001H256C177.185 56.0001 112.956 119.648 112.011 198.244L82.9999 262.069C81.3382 265.725 80.6203 269.739 80.9121 273.744C81.2038 277.749 82.4959 281.617 84.67 284.993C86.844 288.37 89.8305 291.147 93.3559 293.07C96.8813 294.992 100.833 296 104.849 296H120.761L125.159 339.98C126.118 349.861 130.73 359.029 138.09 365.69C145.451 372.352 155.032 376.028 164.96 376H176V408C176.001 408.527 176.053 409.052 176.156 409.569L187.011 463.845C188.843 472.903 193.748 481.05 200.895 486.909C208.042 492.769 216.993 495.98 226.234 496H285.767C295.008 495.98 303.959 492.769 311.106 486.91C318.253 481.05 323.158 472.903 324.99 463.845L335.845 409.569C335.948 409.052 336 408.527 336 408V365.255C335.992 362.102 336.609 358.979 337.815 356.066C339.022 353.153 340.794 350.508 343.03 348.284L362.746 328.568C379.682 311.724 393.11 291.687 402.251 269.619C411.392 247.55 416.066 223.887 416 200C416.021 183.374 413.154 166.87 407.528 151.225L392.473 156.644ZM193.759 416H318.242L313.442 440H198.559L193.759 416ZM285.767 480H226.234C220.689 479.988 215.319 478.061 211.03 474.546C206.742 471.03 203.8 466.142 202.7 460.707L201.759 456H310.242L309.301 460.707C308.201 466.142 305.259 471.03 300.97 474.546C296.682 478.061 291.312 479.988 285.767 480V480Z" fill="black"/>
<path d="M442.344 58.3428L418.344 82.3428L429.657 93.6562L453.657 69.6562L442.344 58.3428Z" fill="black"/>
<path d="M496 248H432V264H496V248Z" fill="black"/>
<path d="M484.848 144.647L428.849 168.647L435.151 183.354L491.151 159.353L484.848 144.647Z" fill="black"/>
<path d="M353.6 19.1999L329.601 51.2002L342.4 60.7998L366.4 28.7995L353.6 19.1999Z" fill="black"/>
<path d="M264 16H248V48H264V16Z" fill="black"/>
<path d="M69.6562 58.3428L58.3428 69.6562L98.3428 109.656L109.656 98.3428L69.6562 58.3428Z" fill="black"/>
<path d="M64 248H16V264H64V248Z" fill="black"/>
<path d="M27.1514 144.646L20.8486 159.353L76.8484 183.353L83.1512 168.647L27.1514 144.646Z" fill="black"/>
<path d="M158.4 19.2L145.601 28.7998L169.601 60.7998L182.4 51.2L158.4 19.2Z" fill="black"/>
<path d="M152.072 174.928C151.877 176.371 152.079 177.839 152.657 179.175C153.234 180.511 154.166 181.664 155.35 182.51L208 220.117V288C208 289.521 208.433 291.01 209.249 292.293C210.065 293.576 211.23 294.6 212.607 295.245C213.984 295.89 215.516 296.129 217.024 295.934C218.532 295.739 219.953 295.119 221.121 294.146L264.657 257.866L323.294 294.771C324.306 295.407 325.447 295.809 326.634 295.947C327.821 296.084 329.024 295.954 330.154 295.566C331.284 295.178 332.313 294.542 333.165 293.704C334.017 292.866 334.671 291.848 335.077 290.725L407.522 90.7246C408.041 89.2923 408.14 87.7416 407.807 86.2549C407.475 84.7682 406.725 83.4073 405.646 82.3322C404.566 81.2572 403.202 80.5126 401.715 80.186C400.227 79.8594 398.676 79.9645 397.246 80.4888L157.246 168.489C155.879 168.99 154.675 169.854 153.764 170.989C152.852 172.124 152.267 173.486 152.072 174.928V174.928ZM224 220.228L348.292 135.483L258.335 242.307L224 270.919V220.228ZM323.415 275.941L276.038 246.124L378.128 124.893L323.415 275.941ZM350.316 114.738L216.106 206.245L176.977 178.296L350.316 114.738Z" fill="black"/>
<path d="M266.344 290.344L210.344 346.344L221.657 357.657L277.657 301.657L266.344 290.344Z" fill="black"/>
<path d="M178.343 274.344L154.343 298.344L165.656 309.657L189.656 285.657L178.343 274.344Z" fill="black"/>
<path d="M170.343 218.343L146.343 242.343L157.656 253.656L181.656 229.656L170.343 218.343Z" fill="black"/>
<path d="M306.344 306.344L282.344 330.344L293.657 341.657L317.657 317.657L306.344 306.344Z" fill="black"/>
</svg>
