<?xml version="1.0" encoding="utf-8"?>
<!-- Generator: Adobe Illustrator 26.0.2, SVG Export Plug-In . SVG Version: 6.00 Build 0)  -->
<svg version="1.1" id="Layer_3" xmlns="http://www.w3.org/2000/svg" xmlns:xlink="http://www.w3.org/1999/xlink" x="0px" y="0px"
	 viewBox="0 0 64 64" style="enable-background:new 0 0 64 64;" xml:space="preserve">
<g>
	<path d="M52.359,53.722L41,51.198v-2.802c3.72-2.334,6.469-6.059,7.518-10.448C51.029,37.684,53,35.579,53,33
		c0-2.369-1.661-4.349-3.877-4.862c0.075-0.447,0.181-0.889,0.325-1.322C49.814,25.719,50,24.576,50,23.419V21
		c0-2.07-0.361-4.079-1.042-6H54v3.184c-1.161,0.414-2,1.514-2,2.816c0,1.654,1.346,3,3,3s3-1.346,3-3c0-1.302-0.839-2.402-2-2.816
		V14c0-0.553-0.447-1-1-1h-9.16c-0.098-0.683-0.236-1.352-0.43-2H50c0.553,0,1-0.447,1-1V6.816C52.161,6.402,53,5.302,53,4
		c0-1.654-1.346-3-3-3s-3,1.346-3,3c0,1.302,0.839,2.402,2,2.816V9h-4.37C42.377,4.278,37.571,1,32,1S21.623,4.278,19.37,9H15V6.816
		C16.161,6.402,17,5.302,17,4c0-1.654-1.346-3-3-3s-3,1.346-3,3c0,1.302,0.839,2.402,2,2.816V10c0,0.553,0.447,1,1,1h4.59
		c-0.193,0.648-0.332,1.317-0.43,2H9c-0.553,0-1,0.447-1,1v4.184C6.839,18.598,6,19.698,6,21c0,1.654,1.346,3,3,3s3-1.346,3-3
		c0-1.302-0.839-2.402-2-2.816V15h5.042C14.361,16.921,14,18.93,14,21v2.419c0,1.157,0.186,2.3,0.552,3.397
		c0.144,0.432,0.25,0.875,0.325,1.322C12.661,28.651,11,30.631,11,33c0,2.579,1.971,4.684,4.482,4.948
		c1.049,4.389,3.799,8.114,7.518,10.448v2.802l-11.359,2.523C7.73,54.591,5,57.995,5,62c0,0.553,0.447,1,1,1h52c0.553,0,1-0.447,1-1
		C59,57.995,56.27,54.591,52.359,53.722z M55,22c-0.552,0-1-0.448-1-1s0.448-1,1-1s1,0.448,1,1S55.552,22,55,22z M50,3
		c0.552,0,1,0.448,1,1s-0.448,1-1,1s-1-0.448-1-1S49.448,3,50,3z M14,3c0.552,0,1,0.448,1,1s-0.448,1-1,1s-1-0.448-1-1
		S13.448,3,14,3z M9,22c-0.552,0-1-0.448-1-1s0.448-1,1-1s1,0.448,1,1S9.552,22,9,22z M51,33c0,1.341-0.89,2.465-2.105,2.848
		C48.961,35.241,49,34.625,49,34v-3.816C50.161,30.598,51,31.698,51,33z M32,3c6.617,0,12,5.383,12,12s-5.383,12-12,12
		s-12-5.383-12-12S25.383,3,32,3z M13,33c0-1.302,0.839-2.402,2-2.816V34c0,0.625,0.039,1.241,0.105,1.848
		C13.89,35.465,13,34.341,13,33z M17,34v-4.419c0-1.157-0.186-2.3-0.552-3.397C16.151,25.291,16,24.36,16,23.419V21
		c0-2.083,0.412-4.094,1.186-6H18c0,7.72,6.28,14,14,14s14-6.28,14-14h0.814C47.588,16.906,48,18.917,48,21v2.419
		c0,0.941-0.151,1.872-0.448,2.765C47.186,27.281,47,28.424,47,29.581V34c0,8.271-6.729,15-15,15S17,42.271,17,34z M32,51
		c2.497,0,4.862-0.555,7-1.526V51.5l-0.4,0.3C36.709,53.219,34.365,54,32,54s-4.709-0.781-6.601-2.2L25,51.5v-2.026
		C27.138,50.445,29.503,51,32,51z M7.075,61c0.399-2.614,2.343-4.735,4.999-5.325l11.694-2.599l0.431,0.323
		C26.435,55.076,29.205,56,32,56s5.565-0.924,7.8-2.601l0.431-0.323l11.695,2.599c2.656,0.59,4.6,2.711,4.999,5.325H7.075z"/>
	<path d="M39,40c0-0.553-0.447-1-1-1H26c-0.553,0-1,0.447-1,1c0,3.859,3.141,7,7,7S39,43.859,39,40z M31.021,44.896
		C31.075,44.396,31.485,44,32,44s0.925,0.396,0.979,0.896C32.661,44.96,32.336,45,32,45S31.339,44.96,31.021,44.896z M27.101,41
		h9.799c-0.261,1.279-1.021,2.367-2.056,3.089C34.455,42.882,33.335,42,32,42s-2.455,0.882-2.843,2.089
		C28.122,43.367,27.361,42.279,27.101,41z"/>
	<path d="M36.196,35.98l1.465-0.293c2.02-0.403,4.071,0.003,5.784,1.145l1.109-1.664c-1.704-1.135-3.659-1.706-5.681-1.628
		l3.833-3.833l-1.414-1.414l-6,6c-0.312,0.312-0.383,0.79-0.175,1.179S35.763,36.074,36.196,35.98z"/>
	<path d="M27.804,35.98c0.434,0.093,0.87-0.12,1.078-0.509s0.137-0.867-0.175-1.179l-6-6l-1.414,1.414l3.833,3.833
		c-2.026-0.06-3.978,0.493-5.681,1.628l1.109,1.664c1.713-1.142,3.769-1.548,5.784-1.145L27.804,35.98z"/>
	<path d="M26.302,19c0.938,0,1.864-0.313,2.611-0.883L32,15.759l3.087,2.358c0.001,0,0.001,0,0.001,0
		C35.834,18.687,36.761,19,37.698,19C40.07,19,42,17.07,42,14.698v-0.396C42,11.93,40.07,10,37.698,10
		c-0.938,0-1.864,0.313-2.611,0.883L32,13.241l-3.088-2.358C28.166,10.313,27.239,10,26.302,10C23.93,10,22,11.93,22,14.302v0.396
		C22,17.07,23.93,19,26.302,19z M36.301,12.473C36.7,12.168,37.197,12,37.698,12C38.968,12,40,13.032,40,14.302v0.396
		C40,15.968,38.968,17,37.698,17c-0.501,0-0.998-0.168-1.397-0.473L33.647,14.5L36.301,12.473z M24,14.302
		C24,13.032,25.032,12,26.302,12c0.501,0,0.998,0.168,1.396,0.473l2.654,2.027l-2.653,2.027C27.3,16.832,26.803,17,26.302,17
		C25.032,17,24,15.968,24,14.698V14.302z"/>
</g>
</svg>
