
        <svg xmlns="http://www.w3.org/2000/svg" xmlns:xlink="http://www.w3.org/1999/xlink" version="1.1" width="3210.5263157894738" 
        height="1086.6918776630393" viewBox="0 0 3210.5263157894738 1086.6918776630393">
			
			<g transform="scale(10.526315789473685) translate(10, 10)">
				<defs id="SvgjsDefs1510"></defs><g id="SvgjsG1511" featureKey="Ez5wPW-0" transform="matrix(1.1372553207394038,0,0,1.1372553207394038,0.0143000711478701,0.000006959168210094322)" fill="#784cfb"><title xmlns="http://www.w3.org/2000/svg">inspect-icons-liny-export</title><path xmlns="http://www.w3.org/2000/svg" d="M17.2,5a2.5,2.5,0,0,0,0-5A8.19,8.19,0,0,0,9,8.19c0,.06,0,.11,0,.17V25.09c0,.05,0,.1,0,.16,0,5.5-7.49,9.07-7.56,9.1a2.5,2.5,0,0,0,0,4.54C1.52,38.92,9,42.49,9,48c0,.05,0,.1,0,.16V64.88C9,64.94,9,65,9,65a8.19,8.19,0,0,0,8.19,8.19,2.5,2.5,0,0,0,0-5A3.19,3.19,0,0,1,14,65.17s0-.08,0-.12V48c0-.06,0-.12,0-.18-.08-5.22-3.77-9-6.75-11.19,3-2.2,6.66-6,6.75-11.19,0-.06,0-.12,0-.18V8.19s0-.08,0-.12A3.19,3.19,0,0,1,17.2,5Z"></path><path xmlns="http://www.w3.org/2000/svg" d="M55.7,34.35c-.08,0-7.57-3.6-7.57-9.1,0-.05,0-.1,0-.16V8.35c0-.05,0-.11,0-.17A8.19,8.19,0,0,0,39.94,0a2.5,2.5,0,0,0,0,5,3.19,3.19,0,0,1,3.18,3.06s0,.08,0,.12V25.25c0,.06,0,.12,0,.18.08,5.22,3.77,9,6.75,11.19-3,2.2-6.66,6-6.75,11.19,0,.06,0,.12,0,.18V65s0,.08,0,.12a3.19,3.19,0,0,1-3.18,3.06,2.5,2.5,0,0,0,0,5A8.19,8.19,0,0,0,48.13,65c0-.06,0-.11,0-.17V48.14c0-.05,0-.1,0-.16,0-5.5,7.49-9.07,7.56-9.1a2.5,2.5,0,0,0,0-4.54Z"></path></g><g id="SvgjsG1512" featureKey="ujU5uU-0" transform="matrix(3.267973815469507,0,0,3.267973815469507,84.15032917658078,-0.43136876634374843)" fill="#784cfb"><path d="M0.26 20 l0 -0.3 l1.34 0 l0 -13.76 l-1.34 0 l0 -0.3 l3.58 0 l0 9.24 l0.4 0 l2.98 -2.74 c0.46 -0.42 0.4 -0.84 -0.28 -0.84 l-0.26 0 l0 -0.3 l3.26 0 l0 0.3 l-0.4 0 c-0.78 0 -1.42 0.4 -1.92 0.88 l-1.78 1.64 l4.12 5.88 l0.78 0 l0 0.3 l-4.16 0 l0 -0.3 l0.82 0 l-3.16 -4.52 l-0.4 0 l0 4.52 l1.18 0 l0 0.3 l-4.76 0 z M13.64 15.26 l0 0.3 c0 3.54 0.84 4.26 2.3 4.26 c1.48 0 2.86 -0.94 2.86 -2.44 l0.3 0 c-0.02 1.2 -0.72 2.02 -1.74 2.46 c-0.52 0.22 -1.02 0.3 -1.64 0.3 c-2.62 0 -4.44 -1.26 -4.44 -4.64 c0 -3.3 1.74 -4.64 4.28 -4.64 c2.36 0 3.74 1.18 3.74 3.6 l0 0.8 l-5.66 0 z M13.66 14.96 l3.42 0 l0 -0.94 c0 -1.88 -0.36 -2.9 -1.56 -2.9 c-1.3 0 -1.8 1.06 -1.86 3.84 z M20.439999999999998 20 l0 -0.3 l1.32 0 l0 -8.4 l-1.32 0 l0 -0.3 l3.52 0 l0 2.12 l0.04 0 c0.24 -0.6 0.96 -2.26 3.28 -2.26 c1.82 0 2.82 0.78 2.82 2.74 l0 6.1 l1.34 0 l0 0.3 l-4.76 0 l0 -0.3 l1.18 0 l0 -6.58 c0 -1.28 -0.32 -1.78 -1.24 -1.78 c-1.9 0 -2.62 2.2 -2.62 3.28 l0 5.08 l1.2 0 l0 0.3 l-4.76 0 z M39.04 20 l0 -1.92 l-0.04 0 c-0.42 1.2 -1.3 2.06 -2.92 2.06 c-2.52 0 -3.68 -1.72 -3.68 -4.5 c0 -3.02 1.52 -4.78 3.98 -4.78 c1.44 0 2.22 0.74 2.58 1.52 l0.04 0 l0 -6.44 l-1.34 0 l0 -0.3 l3.58 0 l0 14.06 l1.34 0 l0 0.3 l-3.54 0 z M39 16.5 l0 -2.54 c0 -1.32 -0.72 -2.68 -2.2 -2.68 c-1.46 0 -2.06 1.34 -2.06 4.4 c0 2.96 0.56 4.04 1.88 4.04 c1.4 0 2.38 -1.52 2.38 -3.22 z M43.239999999999995 20 l0 -0.3 l1.32 0 l0 -8.4 l-1.32 0 l0 -0.3 l3.52 0 l0 2.12 l0.04 0 c0.38 -1.08 1.16 -2.26 2.6 -2.26 c1.12 0 2.02 0.68 2.02 1.84 c0 1.1 -0.76 1.7 -1.64 1.7 c-0.22 0 -0.48 -0.04 -0.74 -0.12 l0 -0.16 c0.62 0.1 0.74 -0.68 0.74 -1.34 c0 -0.94 -0.3 -1.46 -0.9 -1.46 c-0.54 0 -1.02 0.42 -1.4 1.04 c-0.44 0.72 -0.68 1.7 -0.68 2.24 l0 5.1 l1.54 0 l0 0.3 l-5.1 0 z M57.7 18.5 l-0.04 0 c-0.4 0.78 -1.32 1.64 -2.78 1.64 c-1.3 0 -2.72 -0.58 -2.72 -2.24 c0 -2.16 2.74 -2.86 5.16 -2.86 l0.2 0 l0 -2.1 c0 -1.16 -0.34 -1.82 -1.56 -1.82 c-1.16 0 -1.7 0.5 -1.7 1.52 c0 0.66 0.26 1.22 0.94 1.1 l0 0.16 s-0.44 0.14 -0.92 0.14 c-0.94 0 -1.64 -0.46 -1.64 -1.3 c0 -1.12 1.16 -1.88 3.36 -1.88 c2.72 0 3.76 1 3.76 2.74 l0 5.18 c0 0.56 0.12 0.86 0.52 0.86 c0.62 0 0.88 -0.72 0.88 -1.38 l0.3 0 c0 1.28 -0.74 1.88 -1.8 1.88 c-1.12 0 -1.88 -0.6 -1.96 -1.64 z M57.519999999999996 17.9 l0 -2.56 l-0.26 0 c-0.92 0 -1.5 0.2 -1.92 0.48 c-0.58 0.4 -0.84 1.1 -0.84 2.08 c0 1.24 0.38 1.76 1.06 1.76 c0.34 0 0.68 -0.14 1.02 -0.36 c0.5 -0.36 0.94 -0.96 0.94 -1.4 z"></path></g>
			</g>
		</svg>
	